<svg id="layer1" xmlns="http://www.w3.org/2000/svg" width="176" height="17.268" viewBox="0 0 176 17.268">
  <g id="g18" transform="translate(0)">
    <g id="g22">
      <path id="path54" d="M34.678-240.872l.1-.52,3.158-16.346.067-.347h11.62c3.158.05,3.158.05,3.875.1l.006,0a4.74,4.74,0,0,1,2.106.621,2.857,2.857,0,0,1,1.231,1.48l0-.009a3.129,3.129,0,0,1,.22,1.113,6.739,6.739,0,0,1-.152,1.405,5.875,5.875,0,0,1-1,2.56,3.443,3.443,0,0,1-.966.851A2.213,2.213,0,0,1,56-248.948a4.9,4.9,0,0,1,.117,3.1,9.055,9.055,0,0,1-.667,2.169,4.163,4.163,0,0,1-1.072,1.437l0,0a5.316,5.316,0,0,1-2.719,1.1,33.777,33.777,0,0,1-5.19.276H34.678Zm5.119-10.18h8.461c1.543,0,2.5-.018,3.141-.08a2.934,2.934,0,0,0,1.2-.31,1.729,1.729,0,0,0,.667-.637,3.6,3.6,0,0,0,.419-1.2,3.676,3.676,0,0,0,.073-1.135.773.773,0,0,0-.194-.485l0,0a1.078,1.078,0,0,0-.744-.28c-.592-.068-1.6-.092-3.566-.128H40.619Zm-1.43,7.4h8.461c2.605,0,4.082-.074,4.926-.431.737-.312.993-.915,1.2-1.991a3.96,3.96,0,0,0,.087-1.243.746.746,0,0,0-.24-.51v0c-.482-.376-.483-.376-4.908-.447l.006,0H39.26l-.893,4.621Zm22.322-14.086.067-.347h3.152l-.1.52-1.553,8.038-.417,2.157a8.845,8.845,0,0,0-.3,2.835c.074.337.343.476.847.6l-.006,0a12.287,12.287,0,0,0,1.939.21q1.4.074,3.534.074a56.51,56.51,0,0,0,5.664-.182,3.426,3.426,0,0,0,1.938-.589h0a1.748,1.748,0,0,0,.548-1c.2-.695.453-1.934.92-4.282h0l1.553-8.038.067-.347h3.152l-.1.52-1.553,8.038,0,0c-.335,1.671-.509,2.535-.645,3.154-.13.588-.212.877-.363,1.392l0-.006a5.447,5.447,0,0,1-1.486,2.564,5.033,5.033,0,0,1-2.612,1.246h0c-.622.1-1.673.193-2.914.255-1.221.062-2.639.1-4.025.1h0c-1.745,0-3.176-.03-4.307-.087a20.485,20.485,0,0,1-2.69-.267l0,0a3.189,3.189,0,0,1-2.01-1.274,3.649,3.649,0,0,1-.6-2.395v0a14.882,14.882,0,0,1,.159-1.5c.1-.651.271-1.6.6-3.353v0l1.553-8.038Zm20.359,16.866.1-.52,3.158-16.346.067-.347h17.519l-.1.52-.369,1.911-.067.347H86.988l-.8,4.133H99.945l-.1.52-.369,1.911-.067.347H85.652l-.917,4.745H99.128l-.1.519-.369,1.912-.067.347Zm21.934-16.866.067-.347h20.169l-.1.52-.369,1.911-.067.347H114.2l-2.722,14.087-.067.347h-3.152l.1-.52,2.688-13.915h-8.534l.1-.52Zm21.733,0,.067-.347H144.95l-.1.52-.369,1.911-.067.347H135.93l-2.722,14.087-.067.347h-3.152l.1-.52,2.689-13.915h-8.534l.1-.52Zm21.733,0,.067-.347h4.327l.131.156L162.9-243.77l2.7-13.968.067-.347h3.152l-.1.52-3.158,16.346-.067.347h-4.4l-.131-.155L149.1-255.138l-2.689,13.918-.067.347h-3.152l.1-.52Zm21.887,16.866.1-.52,3.158-16.346.067-.347h17.519l-.1.52-.369,1.911-.067.347H174.275l-.8,4.133h13.756l-.1.52-.369,1.911-.067.347H172.94l-.917,4.744h14.393l-.1.521-.369,1.912-.067.347Zm19.44,0,.1-.52,3.158-16.346.067-.347h10.954c2.1.024,3.155.036,3.9.063a14.057,14.057,0,0,1,1.587.137,4.1,4.1,0,0,1,1.859.668,2.846,2.846,0,0,1,1.079,1.44l0,.012a4.37,4.37,0,0,1,.192,1.369,9.79,9.79,0,0,1-.207,1.757,7.144,7.144,0,0,1-1.26,3.32,3.373,3.373,0,0,1-1.412.979,2.415,2.415,0,0,1,.52.5l0,0a2.016,2.016,0,0,1,.5,1.446,16.922,16.922,0,0,1-.408,2.855l-.45,2.328-.067.347H204.74l.1-.52.3-1.569c.208-1.079.314-1.625.36-1.92a5.31,5.31,0,0,0,.067-.781v-.017a1.321,1.321,0,0,0-.214-.942,1.3,1.3,0,0,0-.868-.406h-.007a25.617,25.617,0,0,0-4.365-.142h-7.973l-1.15,5.951-.067.347h-3.152Zm4.906-9.077h9.837a12.9,12.9,0,0,0,2.909-.227,1.95,1.95,0,0,0,1.191-.705,3.34,3.34,0,0,0,.364-.773,8.189,8.189,0,0,0,.326-1.183,4.212,4.212,0,0,0,.072-1.361.953.953,0,0,0-.259-.613l-.011-.009a2.326,2.326,0,0,0-1.3-.38c-.812-.083-2.077-.107-4.119-.107h-7.977Z" transform="translate(-34.678 258.086)" fill="#444" fill-rule="evenodd"/>
    </g>
  </g>
</svg>
