<svg xmlns="http://www.w3.org/2000/svg" width="32" height="32"><g data-name="Grupo 638"><path data-name="Retângulo 590" fill="none" d="M0 0h32v32H0z"/><g fill="#363c4a"><path d="M16.144 4a3.424 3.424 0 0 0-1.724.465L6.277 9.204A2.575 2.575 0 0 0 5 11.423v9.149a2.575 2.575 0 0 0 1.277 2.221l8.144 4.739a3.432 3.432 0 0 0 3.446 0l8.144-4.739a2.575 2.575 0 0 0 1.275-2.221v-9.148a2.575 2.575 0 0 0-1.277-2.219l-8.144-4.739A3.424 3.424 0 0 0 16.144 4Zm0 1.713a1.71 1.71 0 0 1 .861.233l8.143 4.739a.854.854 0 0 1 .426.74v9.148a.854.854 0 0 1-.425.74l-8.143 4.739a1.711 1.711 0 0 1-1.723 0L7.14 21.313a.854.854 0 0 1-.426-.74v-9.148a.854.854 0 0 1 .425-.739l8.142-4.739a1.71 1.71 0 0 1 .861-.233Z"/><path d="M26.194 9.662a.857.857 0 0 0-.466.124l-9.584 5.641-9.584-5.64a.858.858 0 0 0-.869 1.479l9.6 5.648v10.23a.858.858 0 1 0 1.715 0v-10.23l9.6-5.648a.858.858 0 0 0-.4-1.6Z"/></g></g></svg>