<svg id="" xmlns="http://www.w3.org/2000/svg" width="32" height="32">
  <g data-name="Grupo 795"><path data-name="Retângulo 572" fill="none" d="M0 0h32v32H0z"/>
  <g data-name="Grupo 789"><path data-name="Caminho 26" d="M12 26c-.981 0-2-.019-2-1a2 2 0 0 1 4 0c0 .981-1.019 1-2 1Zm0-1Zm0 0Zm0 0Zm0 0Zm0 0Zm0 0Zm0 0Z" fill="#ff3e3e"/></g><g data-name="Grupo 790"><path data-name="Caminho 27" d="M25 26c-.981 0-2-.019-2-1a2.182 2.182 0 0 1 2-2c.981 0 1 1.019 1 2s-.019 1-1 1Zm0-1Z" fill="#ff3e3e"/></g>
  <g data-name="Grupo 791"><path data-name="Caminho 28" d="M25 22H11c-.431 0-.926-.576-1-1L8 7H5a1 1 0 0 1 0-2h3c.431 0 .926.576 1 1l3 14h13a1 1 0 0 1 0 2Z" fill="#ff3e3e"/></g>
<g data-name="Grupo 792"><path data-name="Caminho 29" d="M25 18H11a1.091 1.091 0 0 1-1-1c0-.491.509 0 1 0h14l1-8H9c-.491 0-1 .491-1 0a1.091 1.091 0 0 1 1-1h18c.4 0 .74-.3 1 0s.074.606 0 1l-2 8c-.129.624-.361 1-1 1Zm0-1Z" fill="#ff3e3e"/></g></g></svg>
