<svg xmlns="http://www.w3.org/2000/svg" width="32" height="32"><g data-name="Grupo 559"><path data-name="Retângulo 573" fill="none" d="M0 0h32v32H0z"/><g fill="#363c4a"><path d="M16.168 4.001a12 12 0 1 0 11.831 11.833A12.016 12.016 0 0 0 16.168 4.001Zm7.293 18.879a.231.231 0 0 1-.354-.018 7.169 7.169 0 0 0-1.866-1.707 10.122 10.122 0 0 0-10.48 0 7.167 7.167 0 0 0-1.866 1.706.231.231 0 0 1-.354.018 10.114 10.114 0 0 1-2.693-6.706A10.154 10.154 0 1 1 26.155 16a10.114 10.114 0 0 1-2.694 6.88Z"/><path d="M16 9.539a3.813 3.813 0 0 0-3.911 4.2 3.916 3.916 0 1 0 7.822 0 3.875 3.875 0 0 0-1.02-2.989A3.918 3.918 0 0 0 16 9.539Z"/></g></g></svg>