<svg xmlns="http://www.w3.org/2000/svg" width="32" height="32"><g data-name="Grupo 568"><path data-name="Retângulo 575" fill="none" d="M0 0h32v32H0z"/><path d="M24.405 7.488A11.9 11.9 0 0 0 5.687 21.839L4 28l6.305-1.655a11.857 11.857 0 0 0 5.684 1.446h.005a11.817 11.817 0 0 0 8.411-20.3Zm-8.411 18.3a9.867 9.867 0 0 1-5.036-1.377L10.6 24.2l-3.739.98 1-3.648-.236-.375A9.9 9.9 0 1 1 25.991 15.9a10 10 0 0 1-9.996 9.888Zm5.421-7.4c-.295-.15-1.757-.868-2.03-.964s-.471-.15-.67.15-.766.964-.943 1.168-.348.225-.643.075a8.089 8.089 0 0 1-4.045-3.536c-.305-.525.305-.488.873-1.623a.551.551 0 0 0-.027-.52c-.075-.15-.67-1.612-.916-2.207-.241-.579-.488-.5-.67-.509s-.37-.011-.568-.011a1.1 1.1 0 0 0-.793.37 3.339 3.339 0 0 0-1.039 2.48 5.822 5.822 0 0 0 1.211 3.075 13.279 13.279 0 0 0 5.079 4.489c1.886.814 2.625.884 3.568.745a3.044 3.044 0 0 0 2-1.414 2.485 2.485 0 0 0 .171-1.414c-.064-.142-.262-.213-.557-.358Z" fill="#363c4a"/></g></svg>